<?xml version="1.0" standalone="no"?>
<!DOCTYPE svg PUBLIC "-//W3C//DTD SVG 20010904//EN"
 "http://www.w3.org/TR/2001/REC-SVG-20010904/DTD/svg10.dtd">
<svg version="1.0" xmlns="http://www.w3.org/2000/svg"
 width="700.000000pt" height="700.000000pt" viewBox="0 0 700.000000 700.000000"
 preserveAspectRatio="xMidYMid meet">
<metadata>
Created by potrace 1.14, written by Peter Selinger 2001-2017
</metadata>
<g transform="translate(0.000000,700.000000) scale(0.100000,-0.100000)"
fill="#000000" stroke="none">
<path d="M10 3495 l0 -3495 3495 0 3495 0 0 3495 0 3495 -3495 0 -3495 0 0
-3495z m5040 1695 l0 -320 -1535 0 -1535 0 0 320 0 320 1535 0 1535 0 0 -320z
m-1291 -353 c-66 -44 -69 -59 -69 -377 0 -361 4 -349 -174 -504 -37 -32 -66
-62 -64 -67 2 -4 58 -68 125 -142 135 -149 163 -188 163 -231 0 -47 -32 -86
-205 -246 l-166 -153 58 -51 c268 -237 308 -287 277 -353 -10 -19 -87 -106
-172 -194 l-155 -160 24 -27 c13 -15 77 -82 142 -150 131 -137 150 -162 150
-196 0 -42 -11 -53 -362 -359 l-34 -29 32 -60 c18 -33 31 -62 28 -65 -7 -6
-102 50 -134 80 -23 20 -28 55 -15 89 4 10 68 88 142 173 74 86 135 160 135
163 0 4 -72 76 -160 160 -172 165 -195 193 -195 234 0 34 23 62 199 241 l146
148 -40 36 c-196 177 -295 277 -305 308 -16 49 2 77 158 250 72 81 132 151
132 155 0 4 -70 71 -156 150 -154 142 -194 192 -194 245 0 40 15 62 109 160
125 130 165 222 177 400 7 98 -5 184 -33 243 -23 49 -85 110 -136 133 l-42 19
324 0 324 0 -34 -23z"/>
</g>
</svg>
